<mxfile host="app.diagrams.net" modified="2024-05-17T03:28:32.602Z" agent="Mozilla/5.0 (Windows NT 10.0; Win64; x64; rv:125.0) Gecko/20100101 Firefox/125.0" etag="NksLvrf9UHDDxqBPilxP" version="24.4.0" type="github" pages="3">
  <diagram name="Page-1" id="JLcsjPoBAo_HoKeQmc0Q">
    <mxGraphModel dx="1593" dy="838" grid="1" gridSize="10" guides="1" tooltips="1" connect="1" arrows="1" fold="1" page="1" pageScale="1" pageWidth="850" pageHeight="1100" math="0" shadow="0">
      <root>
        <mxCell id="0" />
        <mxCell id="1" parent="0" />
        <mxCell id="jOm0QuvM_jb7mFfSHx-Y-15" style="edgeStyle=orthogonalEdgeStyle;rounded=0;orthogonalLoop=1;jettySize=auto;html=1;exitX=1;exitY=0.5;exitDx=0;exitDy=0;entryX=0;entryY=0.5;entryDx=0;entryDy=0;" edge="1" parent="1" source="WA0hoH6EGtPf16HeoMWS-2" target="jOm0QuvM_jb7mFfSHx-Y-6">
          <mxGeometry relative="1" as="geometry" />
        </mxCell>
        <mxCell id="WA0hoH6EGtPf16HeoMWS-2" value="&lt;font style=&quot;font-size: 21px;&quot;&gt;Patient&lt;/font&gt;" style="rounded=0;whiteSpace=wrap;html=1;" parent="1" vertex="1">
          <mxGeometry x="190" y="320" width="120" height="60" as="geometry" />
        </mxCell>
        <mxCell id="WA0hoH6EGtPf16HeoMWS-3" value="&lt;u&gt;&lt;font style=&quot;font-size: 21px;&quot;&gt;SSN&lt;/font&gt;&lt;/u&gt;" style="ellipse;whiteSpace=wrap;html=1;" parent="1" vertex="1">
          <mxGeometry x="70" y="210" width="80" height="50" as="geometry" />
        </mxCell>
        <mxCell id="WA0hoH6EGtPf16HeoMWS-4" value="&lt;font style=&quot;font-size: 21px;&quot;&gt;Name&lt;/font&gt;" style="ellipse;whiteSpace=wrap;html=1;" parent="1" vertex="1">
          <mxGeometry x="170" y="210" width="80" height="50" as="geometry" />
        </mxCell>
        <mxCell id="WA0hoH6EGtPf16HeoMWS-5" value="&lt;font style=&quot;font-size: 19px;&quot;&gt;Address&lt;/font&gt;" style="ellipse;whiteSpace=wrap;html=1;" parent="1" vertex="1">
          <mxGeometry x="260" y="210" width="80" height="50" as="geometry" />
        </mxCell>
        <mxCell id="WA0hoH6EGtPf16HeoMWS-6" value="&lt;font style=&quot;font-size: 21px;&quot;&gt;Age&lt;/font&gt;" style="ellipse;whiteSpace=wrap;html=1;" parent="1" vertex="1">
          <mxGeometry x="350" y="210" width="80" height="50" as="geometry" />
        </mxCell>
        <mxCell id="WA0hoH6EGtPf16HeoMWS-7" value="" style="endArrow=none;html=1;rounded=0;entryX=0.5;entryY=1;entryDx=0;entryDy=0;exitX=0.25;exitY=0;exitDx=0;exitDy=0;" parent="1" source="WA0hoH6EGtPf16HeoMWS-2" target="WA0hoH6EGtPf16HeoMWS-3" edge="1">
          <mxGeometry width="50" height="50" relative="1" as="geometry">
            <mxPoint x="400" y="410" as="sourcePoint" />
            <mxPoint x="450" y="360" as="targetPoint" />
          </mxGeometry>
        </mxCell>
        <mxCell id="WA0hoH6EGtPf16HeoMWS-8" style="edgeStyle=orthogonalEdgeStyle;rounded=0;orthogonalLoop=1;jettySize=auto;html=1;exitX=0.25;exitY=0;exitDx=0;exitDy=0;entryX=0.625;entryY=0.96;entryDx=0;entryDy=0;entryPerimeter=0;strokeColor=default;endArrow=none;endFill=0;" parent="1" source="WA0hoH6EGtPf16HeoMWS-2" target="WA0hoH6EGtPf16HeoMWS-4" edge="1">
          <mxGeometry relative="1" as="geometry" />
        </mxCell>
        <mxCell id="WA0hoH6EGtPf16HeoMWS-10" value="" style="endArrow=none;html=1;rounded=0;entryX=0.5;entryY=1;entryDx=0;entryDy=0;exitX=0.75;exitY=0;exitDx=0;exitDy=0;" parent="1" source="WA0hoH6EGtPf16HeoMWS-2" target="WA0hoH6EGtPf16HeoMWS-5" edge="1">
          <mxGeometry width="50" height="50" relative="1" as="geometry">
            <mxPoint x="400" y="410" as="sourcePoint" />
            <mxPoint x="450" y="360" as="targetPoint" />
          </mxGeometry>
        </mxCell>
        <mxCell id="WA0hoH6EGtPf16HeoMWS-11" value="" style="endArrow=none;html=1;rounded=0;entryX=0.5;entryY=1;entryDx=0;entryDy=0;exitX=0.796;exitY=-0.011;exitDx=0;exitDy=0;exitPerimeter=0;" parent="1" source="WA0hoH6EGtPf16HeoMWS-2" target="WA0hoH6EGtPf16HeoMWS-6" edge="1">
          <mxGeometry width="50" height="50" relative="1" as="geometry">
            <mxPoint x="290" y="330" as="sourcePoint" />
            <mxPoint x="310" y="270" as="targetPoint" />
          </mxGeometry>
        </mxCell>
        <mxCell id="JWv-la7WtZ5PFm-VbIgp-1" value="&lt;font style=&quot;font-size: 21px;&quot;&gt;Doctor&lt;/font&gt;" style="rounded=0;whiteSpace=wrap;html=1;" parent="1" vertex="1">
          <mxGeometry x="600" y="320" width="120" height="60" as="geometry" />
        </mxCell>
        <mxCell id="JWv-la7WtZ5PFm-VbIgp-2" value="&lt;u&gt;&lt;font style=&quot;font-size: 21px;&quot;&gt;SSN&lt;/font&gt;&lt;/u&gt;" style="ellipse;whiteSpace=wrap;html=1;" parent="1" vertex="1">
          <mxGeometry x="480" y="210" width="80" height="50" as="geometry" />
        </mxCell>
        <mxCell id="JWv-la7WtZ5PFm-VbIgp-3" value="&lt;font style=&quot;font-size: 21px;&quot;&gt;Name&lt;/font&gt;" style="ellipse;whiteSpace=wrap;html=1;" parent="1" vertex="1">
          <mxGeometry x="580" y="210" width="80" height="50" as="geometry" />
        </mxCell>
        <mxCell id="JWv-la7WtZ5PFm-VbIgp-4" value="&lt;font style=&quot;font-size: 17px;&quot;&gt;Specialty&lt;/font&gt;" style="ellipse;whiteSpace=wrap;html=1;" parent="1" vertex="1">
          <mxGeometry x="670" y="210" width="80" height="50" as="geometry" />
        </mxCell>
        <mxCell id="JWv-la7WtZ5PFm-VbIgp-5" value="&lt;div style=&quot;&quot;&gt;&lt;font style=&quot;font-size: 12px;&quot;&gt;years of&lt;/font&gt;&lt;/div&gt;&lt;div style=&quot;&quot;&gt;&lt;font style=&quot;font-size: 12px;&quot;&gt;experience&lt;font style=&quot;font-size: 12px;&quot;&gt;&lt;br&gt;&lt;/font&gt;&lt;/font&gt;&lt;/div&gt;" style="ellipse;whiteSpace=wrap;html=1;" parent="1" vertex="1">
          <mxGeometry x="760" y="210" width="80" height="50" as="geometry" />
        </mxCell>
        <mxCell id="JWv-la7WtZ5PFm-VbIgp-6" value="" style="endArrow=none;html=1;rounded=0;entryX=0.5;entryY=1;entryDx=0;entryDy=0;exitX=0.25;exitY=0;exitDx=0;exitDy=0;" parent="1" source="JWv-la7WtZ5PFm-VbIgp-1" target="JWv-la7WtZ5PFm-VbIgp-2" edge="1">
          <mxGeometry width="50" height="50" relative="1" as="geometry">
            <mxPoint x="810" y="410" as="sourcePoint" />
            <mxPoint x="860" y="360" as="targetPoint" />
          </mxGeometry>
        </mxCell>
        <mxCell id="JWv-la7WtZ5PFm-VbIgp-7" style="edgeStyle=orthogonalEdgeStyle;rounded=0;orthogonalLoop=1;jettySize=auto;html=1;exitX=0.25;exitY=0;exitDx=0;exitDy=0;entryX=0.625;entryY=0.96;entryDx=0;entryDy=0;entryPerimeter=0;strokeColor=default;endArrow=none;endFill=0;" parent="1" source="JWv-la7WtZ5PFm-VbIgp-1" target="JWv-la7WtZ5PFm-VbIgp-3" edge="1">
          <mxGeometry relative="1" as="geometry" />
        </mxCell>
        <mxCell id="JWv-la7WtZ5PFm-VbIgp-8" value="" style="endArrow=none;html=1;rounded=0;entryX=0.5;entryY=1;entryDx=0;entryDy=0;exitX=0.75;exitY=0;exitDx=0;exitDy=0;" parent="1" source="JWv-la7WtZ5PFm-VbIgp-1" target="JWv-la7WtZ5PFm-VbIgp-4" edge="1">
          <mxGeometry width="50" height="50" relative="1" as="geometry">
            <mxPoint x="810" y="410" as="sourcePoint" />
            <mxPoint x="860" y="360" as="targetPoint" />
          </mxGeometry>
        </mxCell>
        <mxCell id="JWv-la7WtZ5PFm-VbIgp-9" value="" style="endArrow=none;html=1;rounded=0;entryX=0.5;entryY=1;entryDx=0;entryDy=0;exitX=0.796;exitY=-0.011;exitDx=0;exitDy=0;exitPerimeter=0;" parent="1" source="JWv-la7WtZ5PFm-VbIgp-1" target="JWv-la7WtZ5PFm-VbIgp-5" edge="1">
          <mxGeometry width="50" height="50" relative="1" as="geometry">
            <mxPoint x="700" y="330" as="sourcePoint" />
            <mxPoint x="720" y="270" as="targetPoint" />
          </mxGeometry>
        </mxCell>
        <mxCell id="jOm0QuvM_jb7mFfSHx-Y-1" value="&lt;font style=&quot;font-size: 21px;&quot;&gt;Clinic&lt;/font&gt;" style="rounded=0;whiteSpace=wrap;html=1;" vertex="1" parent="1">
          <mxGeometry x="960" y="320" width="120" height="60" as="geometry" />
        </mxCell>
        <mxCell id="jOm0QuvM_jb7mFfSHx-Y-2" value="&lt;u&gt;&lt;font style=&quot;font-size: 21px;&quot;&gt;Name&lt;/font&gt;&lt;/u&gt;" style="ellipse;whiteSpace=wrap;html=1;" vertex="1" parent="1">
          <mxGeometry x="930" y="200" width="80" height="50" as="geometry" />
        </mxCell>
        <mxCell id="jOm0QuvM_jb7mFfSHx-Y-3" style="edgeStyle=orthogonalEdgeStyle;rounded=0;orthogonalLoop=1;jettySize=auto;html=1;exitX=0.102;exitY=-0.031;exitDx=0;exitDy=0;entryX=0.5;entryY=1;entryDx=0;entryDy=0;strokeColor=default;endArrow=none;endFill=0;exitPerimeter=0;" edge="1" parent="1" source="jOm0QuvM_jb7mFfSHx-Y-1" target="jOm0QuvM_jb7mFfSHx-Y-2">
          <mxGeometry relative="1" as="geometry">
            <mxPoint x="270" y="330" as="sourcePoint" />
            <mxPoint x="270" y="268" as="targetPoint" />
            <Array as="points">
              <mxPoint x="972" y="250" />
            </Array>
          </mxGeometry>
        </mxCell>
        <mxCell id="jOm0QuvM_jb7mFfSHx-Y-4" value="&lt;font style=&quot;font-size: 21px;&quot;&gt;City&lt;/font&gt;" style="ellipse;whiteSpace=wrap;html=1;" vertex="1" parent="1">
          <mxGeometry x="1020" y="200" width="80" height="50" as="geometry" />
        </mxCell>
        <mxCell id="jOm0QuvM_jb7mFfSHx-Y-5" style="edgeStyle=orthogonalEdgeStyle;rounded=0;orthogonalLoop=1;jettySize=auto;html=1;exitX=0.856;exitY=0.001;exitDx=0;exitDy=0;entryX=0.5;entryY=1;entryDx=0;entryDy=0;strokeColor=default;endArrow=none;endFill=0;exitPerimeter=0;" edge="1" parent="1" target="jOm0QuvM_jb7mFfSHx-Y-4" source="jOm0QuvM_jb7mFfSHx-Y-1">
          <mxGeometry relative="1" as="geometry">
            <mxPoint x="1062" y="322" as="sourcePoint" />
            <mxPoint x="360" y="268" as="targetPoint" />
            <Array as="points">
              <mxPoint x="1063" y="250" />
            </Array>
          </mxGeometry>
        </mxCell>
        <mxCell id="jOm0QuvM_jb7mFfSHx-Y-16" style="edgeStyle=orthogonalEdgeStyle;rounded=0;orthogonalLoop=1;jettySize=auto;html=1;exitX=1;exitY=0.5;exitDx=0;exitDy=0;entryX=0;entryY=0.5;entryDx=0;entryDy=0;endArrow=none;endFill=0;" edge="1" parent="1" source="jOm0QuvM_jb7mFfSHx-Y-6" target="JWv-la7WtZ5PFm-VbIgp-1">
          <mxGeometry relative="1" as="geometry" />
        </mxCell>
        <mxCell id="jOm0QuvM_jb7mFfSHx-Y-6" value="&lt;div style=&quot;font-size: 11px;&quot;&gt;&lt;font style=&quot;font-size: 11px;&quot;&gt;has physician/&lt;/font&gt;&lt;/div&gt;&lt;div style=&quot;font-size: 11px;&quot;&gt;&lt;font style=&quot;font-size: 11px;&quot;&gt;Has patient&lt;/font&gt;&lt;/div&gt;" style="rhombus;whiteSpace=wrap;html=1;" vertex="1" parent="1">
          <mxGeometry x="410" y="310" width="100" height="80" as="geometry" />
        </mxCell>
        <mxCell id="jOm0QuvM_jb7mFfSHx-Y-7" value="&lt;font style=&quot;font-size: 21px;&quot;&gt;Drug Company&lt;br&gt;&lt;/font&gt;" style="rounded=0;whiteSpace=wrap;html=1;" vertex="1" parent="1">
          <mxGeometry x="985" y="550" width="120" height="60" as="geometry" />
        </mxCell>
        <mxCell id="jOm0QuvM_jb7mFfSHx-Y-8" value="&lt;font style=&quot;font-size: 21px;&quot;&gt;Name&lt;/font&gt;" style="ellipse;whiteSpace=wrap;html=1;" vertex="1" parent="1">
          <mxGeometry x="955" y="430" width="80" height="50" as="geometry" />
        </mxCell>
        <mxCell id="jOm0QuvM_jb7mFfSHx-Y-9" style="edgeStyle=orthogonalEdgeStyle;rounded=0;orthogonalLoop=1;jettySize=auto;html=1;exitX=0.102;exitY=-0.031;exitDx=0;exitDy=0;entryX=0.5;entryY=1;entryDx=0;entryDy=0;strokeColor=default;endArrow=none;endFill=0;exitPerimeter=0;" edge="1" parent="1" source="jOm0QuvM_jb7mFfSHx-Y-7" target="jOm0QuvM_jb7mFfSHx-Y-8">
          <mxGeometry relative="1" as="geometry">
            <mxPoint x="295" y="560" as="sourcePoint" />
            <mxPoint x="295" y="498" as="targetPoint" />
            <Array as="points">
              <mxPoint x="997" y="480" />
            </Array>
          </mxGeometry>
        </mxCell>
        <mxCell id="jOm0QuvM_jb7mFfSHx-Y-10" value="&lt;font style=&quot;font-size: 21px;&quot;&gt;City&lt;/font&gt;" style="ellipse;whiteSpace=wrap;html=1;" vertex="1" parent="1">
          <mxGeometry x="1045" y="430" width="80" height="50" as="geometry" />
        </mxCell>
        <mxCell id="jOm0QuvM_jb7mFfSHx-Y-11" style="edgeStyle=orthogonalEdgeStyle;rounded=0;orthogonalLoop=1;jettySize=auto;html=1;exitX=0.856;exitY=0.001;exitDx=0;exitDy=0;entryX=0.5;entryY=1;entryDx=0;entryDy=0;strokeColor=default;endArrow=none;endFill=0;exitPerimeter=0;" edge="1" parent="1" source="jOm0QuvM_jb7mFfSHx-Y-7" target="jOm0QuvM_jb7mFfSHx-Y-10">
          <mxGeometry relative="1" as="geometry">
            <mxPoint x="1087" y="552" as="sourcePoint" />
            <mxPoint x="385" y="498" as="targetPoint" />
            <Array as="points">
              <mxPoint x="1088" y="480" />
            </Array>
          </mxGeometry>
        </mxCell>
        <mxCell id="jOm0QuvM_jb7mFfSHx-Y-12" value="Works for" style="rhombus;whiteSpace=wrap;html=1;" vertex="1" parent="1">
          <mxGeometry x="810" y="310" width="80" height="80" as="geometry" />
        </mxCell>
        <mxCell id="jOm0QuvM_jb7mFfSHx-Y-13" value="" style="endArrow=none;html=1;rounded=0;entryX=0;entryY=0.5;entryDx=0;entryDy=0;exitX=1;exitY=0.5;exitDx=0;exitDy=0;" edge="1" parent="1" source="JWv-la7WtZ5PFm-VbIgp-1" target="jOm0QuvM_jb7mFfSHx-Y-12">
          <mxGeometry width="50" height="50" relative="1" as="geometry">
            <mxPoint x="610" y="520" as="sourcePoint" />
            <mxPoint x="660" y="470" as="targetPoint" />
          </mxGeometry>
        </mxCell>
        <mxCell id="jOm0QuvM_jb7mFfSHx-Y-14" value="" style="endArrow=none;html=1;rounded=0;exitX=1;exitY=0.5;exitDx=0;exitDy=0;" edge="1" parent="1" target="jOm0QuvM_jb7mFfSHx-Y-1">
          <mxGeometry width="50" height="50" relative="1" as="geometry">
            <mxPoint x="890" y="349.66" as="sourcePoint" />
            <mxPoint x="960" y="350" as="targetPoint" />
          </mxGeometry>
        </mxCell>
        <mxCell id="jOm0QuvM_jb7mFfSHx-Y-17" value="Many" style="text;html=1;align=center;verticalAlign=middle;resizable=0;points=[];autosize=1;strokeColor=none;fillColor=none;" vertex="1" parent="1">
          <mxGeometry x="310" y="350" width="50" height="30" as="geometry" />
        </mxCell>
        <mxCell id="jOm0QuvM_jb7mFfSHx-Y-18" value="One" style="text;html=1;align=center;verticalAlign=middle;resizable=0;points=[];autosize=1;strokeColor=none;fillColor=none;" vertex="1" parent="1">
          <mxGeometry x="550" y="350" width="50" height="30" as="geometry" />
        </mxCell>
        <mxCell id="iAmRMfbGP7ldfhyTB-3w-1" value="" style="endArrow=none;html=1;rounded=0;exitX=0.998;exitY=0.447;exitDx=0;exitDy=0;exitPerimeter=0;" edge="1" parent="1" source="WA0hoH6EGtPf16HeoMWS-2">
          <mxGeometry width="50" height="50" relative="1" as="geometry">
            <mxPoint x="310" y="350" as="sourcePoint" />
            <mxPoint x="403" y="348" as="targetPoint" />
          </mxGeometry>
        </mxCell>
        <mxCell id="iAmRMfbGP7ldfhyTB-3w-2" style="edgeStyle=orthogonalEdgeStyle;rounded=0;orthogonalLoop=1;jettySize=auto;html=1;exitX=0.987;exitY=0.54;exitDx=0;exitDy=0;entryX=0;entryY=0.5;entryDx=0;entryDy=0;endArrow=none;endFill=0;exitPerimeter=0;" edge="1" parent="1" source="jOm0QuvM_jb7mFfSHx-Y-6">
          <mxGeometry relative="1" as="geometry">
            <mxPoint x="490" y="353" as="sourcePoint" />
            <mxPoint x="600" y="353" as="targetPoint" />
          </mxGeometry>
        </mxCell>
        <mxCell id="iAmRMfbGP7ldfhyTB-3w-3" value="" style="endArrow=none;html=1;rounded=0;exitX=0.962;exitY=0.523;exitDx=0;exitDy=0;exitPerimeter=0;" edge="1" parent="1">
          <mxGeometry width="50" height="50" relative="1" as="geometry">
            <mxPoint x="887.96" y="351.84" as="sourcePoint" />
            <mxPoint x="961" y="352.34" as="targetPoint" />
          </mxGeometry>
        </mxCell>
        <mxCell id="iAmRMfbGP7ldfhyTB-3w-4" value="" style="endArrow=none;html=1;rounded=0;entryX=0.036;entryY=0.529;entryDx=0;entryDy=0;exitX=1;exitY=0.5;exitDx=0;exitDy=0;entryPerimeter=0;" edge="1" parent="1" target="jOm0QuvM_jb7mFfSHx-Y-12">
          <mxGeometry width="50" height="50" relative="1" as="geometry">
            <mxPoint x="720" y="352" as="sourcePoint" />
            <mxPoint x="810" y="352" as="targetPoint" />
          </mxGeometry>
        </mxCell>
        <mxCell id="iAmRMfbGP7ldfhyTB-3w-5" value="&lt;font style=&quot;font-size: 21px;&quot;&gt;Drug&lt;br&gt;&lt;/font&gt;" style="rounded=0;whiteSpace=wrap;html=1;" vertex="1" parent="1">
          <mxGeometry x="620" y="550" width="120" height="60" as="geometry" />
        </mxCell>
        <mxCell id="iAmRMfbGP7ldfhyTB-3w-6" value="&lt;u&gt;&lt;font style=&quot;font-size: 21px;&quot;&gt;Name&lt;/font&gt;&lt;/u&gt;" style="ellipse;whiteSpace=wrap;html=1;" vertex="1" parent="1">
          <mxGeometry x="590" y="430" width="80" height="50" as="geometry" />
        </mxCell>
        <mxCell id="iAmRMfbGP7ldfhyTB-3w-7" style="edgeStyle=orthogonalEdgeStyle;rounded=0;orthogonalLoop=1;jettySize=auto;html=1;exitX=0.102;exitY=-0.031;exitDx=0;exitDy=0;entryX=0.5;entryY=1;entryDx=0;entryDy=0;strokeColor=default;endArrow=none;endFill=0;exitPerimeter=0;" edge="1" parent="1" source="iAmRMfbGP7ldfhyTB-3w-5" target="iAmRMfbGP7ldfhyTB-3w-6">
          <mxGeometry relative="1" as="geometry">
            <mxPoint x="-70" y="560" as="sourcePoint" />
            <mxPoint x="-70" y="498" as="targetPoint" />
            <Array as="points">
              <mxPoint x="632" y="480" />
            </Array>
          </mxGeometry>
        </mxCell>
        <mxCell id="iAmRMfbGP7ldfhyTB-3w-8" value="&lt;font style=&quot;font-size: 18px;&quot;&gt;Formula&lt;/font&gt;" style="ellipse;whiteSpace=wrap;html=1;" vertex="1" parent="1">
          <mxGeometry x="680" y="430" width="80" height="50" as="geometry" />
        </mxCell>
        <mxCell id="iAmRMfbGP7ldfhyTB-3w-9" style="edgeStyle=orthogonalEdgeStyle;rounded=0;orthogonalLoop=1;jettySize=auto;html=1;exitX=0.856;exitY=0.001;exitDx=0;exitDy=0;entryX=0.5;entryY=1;entryDx=0;entryDy=0;strokeColor=default;endArrow=none;endFill=0;exitPerimeter=0;" edge="1" parent="1" source="iAmRMfbGP7ldfhyTB-3w-5" target="iAmRMfbGP7ldfhyTB-3w-8">
          <mxGeometry relative="1" as="geometry">
            <mxPoint x="722" y="552" as="sourcePoint" />
            <mxPoint x="20" y="498" as="targetPoint" />
            <Array as="points">
              <mxPoint x="723" y="480" />
            </Array>
          </mxGeometry>
        </mxCell>
        <mxCell id="iAmRMfbGP7ldfhyTB-3w-10" value="&lt;font style=&quot;font-size: 15px;&quot;&gt;Made by&lt;/font&gt;" style="rhombus;whiteSpace=wrap;html=1;" vertex="1" parent="1">
          <mxGeometry x="840" y="540" width="80" height="80" as="geometry" />
        </mxCell>
        <mxCell id="iAmRMfbGP7ldfhyTB-3w-11" style="edgeStyle=orthogonalEdgeStyle;rounded=0;orthogonalLoop=1;jettySize=auto;html=1;exitX=1;exitY=0.5;exitDx=0;exitDy=0;entryX=0;entryY=0.5;entryDx=0;entryDy=0;" edge="1" parent="1">
          <mxGeometry relative="1" as="geometry">
            <mxPoint x="740" y="580" as="sourcePoint" />
            <mxPoint x="840" y="580" as="targetPoint" />
          </mxGeometry>
        </mxCell>
        <mxCell id="iAmRMfbGP7ldfhyTB-3w-12" value="Many" style="text;html=1;align=center;verticalAlign=middle;resizable=0;points=[];autosize=1;strokeColor=none;fillColor=none;" vertex="1" parent="1">
          <mxGeometry x="740" y="580" width="50" height="30" as="geometry" />
        </mxCell>
        <mxCell id="iAmRMfbGP7ldfhyTB-3w-13" value="" style="endArrow=none;html=1;rounded=0;exitX=0.998;exitY=0.447;exitDx=0;exitDy=0;exitPerimeter=0;" edge="1" parent="1">
          <mxGeometry width="50" height="50" relative="1" as="geometry">
            <mxPoint x="740" y="577" as="sourcePoint" />
            <mxPoint x="833" y="578" as="targetPoint" />
          </mxGeometry>
        </mxCell>
        <mxCell id="iAmRMfbGP7ldfhyTB-3w-14" value="" style="endArrow=none;html=1;rounded=0;exitX=1;exitY=0.5;exitDx=0;exitDy=0;entryX=0;entryY=0.5;entryDx=0;entryDy=0;" edge="1" parent="1" source="iAmRMfbGP7ldfhyTB-3w-10" target="jOm0QuvM_jb7mFfSHx-Y-7">
          <mxGeometry width="50" height="50" relative="1" as="geometry">
            <mxPoint x="1100" y="540" as="sourcePoint" />
            <mxPoint x="1150" y="490" as="targetPoint" />
          </mxGeometry>
        </mxCell>
        <mxCell id="iAmRMfbGP7ldfhyTB-3w-15" value="One" style="text;html=1;align=center;verticalAlign=middle;resizable=0;points=[];autosize=1;strokeColor=none;fillColor=none;" vertex="1" parent="1">
          <mxGeometry x="935" y="580" width="50" height="30" as="geometry" />
        </mxCell>
        <mxCell id="iAmRMfbGP7ldfhyTB-3w-16" value="&lt;font style=&quot;font-size: 21px;&quot;&gt;In store pharmacy&lt;br&gt;&lt;/font&gt;" style="rounded=0;whiteSpace=wrap;html=1;" vertex="1" parent="1">
          <mxGeometry x="190" y="713" width="120" height="60" as="geometry" />
        </mxCell>
        <mxCell id="iAmRMfbGP7ldfhyTB-3w-17" value="&lt;u&gt;&lt;font style=&quot;font-size: 21px;&quot;&gt;Name&lt;/font&gt;&lt;/u&gt;" style="ellipse;whiteSpace=wrap;html=1;" vertex="1" parent="1">
          <mxGeometry x="170" y="508" width="80" height="50" as="geometry" />
        </mxCell>
        <mxCell id="iAmRMfbGP7ldfhyTB-3w-19" value="&lt;font style=&quot;font-size: 16px;&quot;&gt;Phone Number&lt;font style=&quot;font-size: 16px;&quot;&gt;&lt;br&gt;&lt;/font&gt;&lt;/font&gt;" style="ellipse;whiteSpace=wrap;html=1;" vertex="1" parent="1">
          <mxGeometry x="170" y="588" width="80" height="50" as="geometry" />
        </mxCell>
        <mxCell id="iAmRMfbGP7ldfhyTB-3w-21" value="&lt;font style=&quot;font-size: 21px;&quot;&gt;Pharmacy&lt;/font&gt;" style="rounded=0;whiteSpace=wrap;html=1;" vertex="1" parent="1">
          <mxGeometry x="280" y="548" width="120" height="60" as="geometry" />
        </mxCell>
        <mxCell id="iAmRMfbGP7ldfhyTB-3w-22" value="" style="endArrow=none;html=1;rounded=0;exitX=0;exitY=0;exitDx=0;exitDy=0;entryX=1;entryY=0.5;entryDx=0;entryDy=0;" edge="1" parent="1" source="iAmRMfbGP7ldfhyTB-3w-21" target="iAmRMfbGP7ldfhyTB-3w-17">
          <mxGeometry width="50" height="50" relative="1" as="geometry">
            <mxPoint x="400" y="588" as="sourcePoint" />
            <mxPoint x="450" y="538" as="targetPoint" />
          </mxGeometry>
        </mxCell>
        <mxCell id="iAmRMfbGP7ldfhyTB-3w-23" value="" style="endArrow=none;html=1;rounded=0;entryX=1;entryY=0.5;entryDx=0;entryDy=0;exitX=0.022;exitY=1;exitDx=0;exitDy=0;exitPerimeter=0;" edge="1" parent="1" source="iAmRMfbGP7ldfhyTB-3w-21" target="iAmRMfbGP7ldfhyTB-3w-19">
          <mxGeometry width="50" height="50" relative="1" as="geometry">
            <mxPoint x="400" y="658" as="sourcePoint" />
            <mxPoint x="450" y="608" as="targetPoint" />
          </mxGeometry>
        </mxCell>
        <mxCell id="iAmRMfbGP7ldfhyTB-3w-24" value="" style="endArrow=none;html=1;rounded=0;" edge="1" parent="1">
          <mxGeometry width="50" height="50" relative="1" as="geometry">
            <mxPoint x="338.0799999999999" y="648" as="sourcePoint" />
            <mxPoint x="338.0799999999999" y="608" as="targetPoint" />
          </mxGeometry>
        </mxCell>
        <mxCell id="iAmRMfbGP7ldfhyTB-3w-25" value="" style="endArrow=none;html=1;rounded=0;" edge="1" parent="1">
          <mxGeometry width="50" height="50" relative="1" as="geometry">
            <mxPoint x="341.0799999999999" y="648" as="sourcePoint" />
            <mxPoint x="341.0799999999999" y="608" as="targetPoint" />
          </mxGeometry>
        </mxCell>
        <mxCell id="iAmRMfbGP7ldfhyTB-3w-26" value="" style="triangle;whiteSpace=wrap;html=1;rotation=-90;" vertex="1" parent="1">
          <mxGeometry x="320" y="638" width="40" height="55" as="geometry" />
        </mxCell>
        <mxCell id="iAmRMfbGP7ldfhyTB-3w-27" value="&lt;font style=&quot;font-size: 15px;&quot;&gt;is a&lt;/font&gt;" style="text;html=1;align=center;verticalAlign=middle;resizable=0;points=[];autosize=1;strokeColor=none;fillColor=none;" vertex="1" parent="1">
          <mxGeometry x="315" y="658" width="50" height="30" as="geometry" />
        </mxCell>
        <mxCell id="iAmRMfbGP7ldfhyTB-3w-28" value="&lt;font style=&quot;font-size: 21px;&quot;&gt;online pharmacy&lt;br&gt;&lt;/font&gt;" style="rounded=0;whiteSpace=wrap;html=1;" vertex="1" parent="1">
          <mxGeometry x="360" y="713" width="120" height="60" as="geometry" />
        </mxCell>
        <mxCell id="iAmRMfbGP7ldfhyTB-3w-30" value="" style="endArrow=none;html=1;rounded=0;entryX=0.18;entryY=0.933;entryDx=0;entryDy=0;entryPerimeter=0;" edge="1" parent="1" source="iAmRMfbGP7ldfhyTB-3w-16" target="iAmRMfbGP7ldfhyTB-3w-27">
          <mxGeometry width="50" height="50" relative="1" as="geometry">
            <mxPoint x="265" y="738" as="sourcePoint" />
            <mxPoint x="315" y="688" as="targetPoint" />
          </mxGeometry>
        </mxCell>
        <mxCell id="iAmRMfbGP7ldfhyTB-3w-31" value="" style="endArrow=none;html=1;rounded=0;exitX=0.25;exitY=0;exitDx=0;exitDy=0;entryX=0.74;entryY=0.92;entryDx=0;entryDy=0;entryPerimeter=0;" edge="1" parent="1" source="iAmRMfbGP7ldfhyTB-3w-28" target="iAmRMfbGP7ldfhyTB-3w-27">
          <mxGeometry width="50" height="50" relative="1" as="geometry">
            <mxPoint x="430" y="718" as="sourcePoint" />
            <mxPoint x="480" y="668" as="targetPoint" />
          </mxGeometry>
        </mxCell>
        <mxCell id="iAmRMfbGP7ldfhyTB-3w-32" value="&lt;font style=&quot;font-size: 18px;&quot;&gt;Address&lt;/font&gt;" style="ellipse;whiteSpace=wrap;html=1;" vertex="1" parent="1">
          <mxGeometry x="80" y="713" width="80" height="50" as="geometry" />
        </mxCell>
        <mxCell id="iAmRMfbGP7ldfhyTB-3w-33" value="&lt;font style=&quot;font-size: 18px;&quot;&gt;Address&lt;/font&gt;" style="ellipse;whiteSpace=wrap;html=1;" vertex="1" parent="1">
          <mxGeometry x="520" y="713" width="80" height="50" as="geometry" />
        </mxCell>
        <mxCell id="iAmRMfbGP7ldfhyTB-3w-34" value="" style="endArrow=none;html=1;rounded=0;exitX=1;exitY=0.5;exitDx=0;exitDy=0;entryX=0;entryY=0.417;entryDx=0;entryDy=0;entryPerimeter=0;" edge="1" parent="1" source="iAmRMfbGP7ldfhyTB-3w-32" target="iAmRMfbGP7ldfhyTB-3w-16">
          <mxGeometry width="50" height="50" relative="1" as="geometry">
            <mxPoint x="290" y="718" as="sourcePoint" />
            <mxPoint x="340" y="668" as="targetPoint" />
          </mxGeometry>
        </mxCell>
        <mxCell id="iAmRMfbGP7ldfhyTB-3w-35" value="" style="endArrow=none;html=1;rounded=0;entryX=0.005;entryY=0.556;entryDx=0;entryDy=0;entryPerimeter=0;exitX=1;exitY=0.463;exitDx=0;exitDy=0;exitPerimeter=0;" edge="1" parent="1" source="iAmRMfbGP7ldfhyTB-3w-28" target="iAmRMfbGP7ldfhyTB-3w-33">
          <mxGeometry width="50" height="50" relative="1" as="geometry">
            <mxPoint x="290" y="718" as="sourcePoint" />
            <mxPoint x="340" y="668" as="targetPoint" />
          </mxGeometry>
        </mxCell>
        <mxCell id="iAmRMfbGP7ldfhyTB-3w-36" value="&lt;font style=&quot;font-size: 15px;&quot;&gt;Sells&lt;/font&gt;" style="rhombus;whiteSpace=wrap;html=1;" vertex="1" parent="1">
          <mxGeometry x="460" y="540" width="80" height="80" as="geometry" />
        </mxCell>
        <mxCell id="iAmRMfbGP7ldfhyTB-3w-37" value="" style="endArrow=none;html=1;rounded=0;" edge="1" parent="1">
          <mxGeometry width="50" height="50" relative="1" as="geometry">
            <mxPoint x="400" y="578" as="sourcePoint" />
            <mxPoint x="460" y="578" as="targetPoint" />
          </mxGeometry>
        </mxCell>
        <mxCell id="iAmRMfbGP7ldfhyTB-3w-38" value="" style="endArrow=none;html=1;rounded=0;" edge="1" parent="1">
          <mxGeometry width="50" height="50" relative="1" as="geometry">
            <mxPoint x="400" y="581" as="sourcePoint" />
            <mxPoint x="460" y="581" as="targetPoint" />
          </mxGeometry>
        </mxCell>
        <mxCell id="iAmRMfbGP7ldfhyTB-3w-40" value="" style="endArrow=none;html=1;rounded=0;entryX=0;entryY=0.5;entryDx=0;entryDy=0;" edge="1" parent="1" target="iAmRMfbGP7ldfhyTB-3w-5">
          <mxGeometry width="50" height="50" relative="1" as="geometry">
            <mxPoint x="540" y="581.17" as="sourcePoint" />
            <mxPoint x="600" y="581.17" as="targetPoint" />
          </mxGeometry>
        </mxCell>
      </root>
    </mxGraphModel>
  </diagram>
  <diagram id="U0lu4lqUTvHQZqUgFBcO" name="Page-2">
    <mxGraphModel dx="1434" dy="754" grid="1" gridSize="10" guides="1" tooltips="1" connect="1" arrows="1" fold="1" page="1" pageScale="1" pageWidth="850" pageHeight="1100" math="0" shadow="0">
      <root>
        <mxCell id="0" />
        <mxCell id="1" parent="0" />
      </root>
    </mxGraphModel>
  </diagram>
  <diagram id="C2qFvdgHK_5GYzFH0pt8" name="Page-3">
    <mxGraphModel dx="1434" dy="754" grid="1" gridSize="10" guides="1" tooltips="1" connect="1" arrows="1" fold="1" page="1" pageScale="1" pageWidth="850" pageHeight="1100" math="0" shadow="0">
      <root>
        <mxCell id="0" />
        <mxCell id="1" parent="0" />
      </root>
    </mxGraphModel>
  </diagram>
</mxfile>
